# xmcd
#
# Track frame offsets: 
#        150
#        16957
#        38006
#        56296
#        77023
#        90962
#        112367
#        127395
#        152202
#        179885
#        202428
#        229823
#        244945
#
# Disc length: 3502 seconds
#
# Revision: 0
# Processed by: cddbd v1.5.2PL0 Copyright (c) Steve Scherf et al.
# Submitted via: ExactAudioCopy v0.95a4
#
DISCID=ba0dac0d
DTITLE=Mika Jantunen Band - Kansanjuhla Live
DYEAR=2012
DGENRE=Chorus
TTITLE0=01 Kiitän sydämestäni
TTITLE1=02 Agnus Dei
TTITLE2=03 Herran kirkkaus
TTITLE3=04 Halleluja
TTITLE4=05 Oon Jumala joka parantaa
TTITLE5=06 Keskellä kirkkauttasi
TTITLE6=07 Oi Suomen kansa
TTITLE7=08 Pelastajani
TTITLE8=09 Suuri Hän on
TTITLE9=10 Oi Herra suuri
TTITLE10=11 Astua saan eteen Herran
TTITLE11=12 Korotan sinua
TTITLE12=13 Tulkoon valtakuntasi
EXTD=
EXTT0=
EXTT1=
EXTT2=
EXTT3=
EXTT4=
EXTT5=
EXTT6=
EXTT7=
EXTT8=
EXTT9=
EXTT10=
EXTT11=
EXTT12=
PLAYORDER=
